<?xml version="1.0" standalone="no"?>
<!DOCTYPE svg PUBLIC "-//W3C//DTD SVG 20010904//EN"
 "http://www.w3.org/TR/2001/REC-SVG-20010904/DTD/svg10.dtd">
<svg version="1.0" xmlns="http://www.w3.org/2000/svg"
 width="1126.000000pt" height="1126.000000pt" viewBox="0 0 1126.000000 1126.000000"
 preserveAspectRatio="xMidYMid meet">
<metadata>
Created by potrace 1.11, written by Peter Selinger 2001-2013
</metadata>
<g transform="translate(0.000000,1126.000000) scale(0.100000,-0.100000)"
fill="#000000" stroke="none">
<path d="M5358 11255 c-2 -2 -55 -6 -118 -10 -63 -3 -128 -8 -145 -10 -16 -3
-57 -7 -90 -11 -103 -10 -129 -13 -160 -18 -16 -3 -48 -8 -70 -11 -72 -10
-208 -35 -305 -56 -52 -11 -106 -23 -119 -25 -13 -3 -74 -18 -135 -34 -61 -17
-122 -33 -136 -36 -51 -11 -409 -133 -510 -173 -261 -104 -608 -274 -804 -394
-59 -37 -110 -67 -112 -67 -10 0 -290 -193 -401 -277 -436 -327 -836 -730
-1149 -1157 -29 -39 -57 -75 -61 -81 -35 -42 -253 -380 -253 -391 0 -2 -11
-21 -24 -42 -69 -106 -256 -479 -331 -662 -26 -63 -53 -128 -60 -145 -23 -52
-125 -357 -150 -445 -26 -92 -91 -349 -99 -390 -2 -14 -14 -72 -25 -130 -11
-58 -23 -125 -26 -150 -4 -25 -9 -52 -10 -61 -2 -9 -6 -40 -10 -69 -4 -29 -9
-62 -11 -74 -2 -12 -7 -52 -10 -91 -3 -38 -7 -77 -9 -85 -25 -97 -26 -863 -1
-1055 2 -16 7 -59 10 -95 4 -36 8 -75 10 -86 2 -12 7 -45 11 -75 8 -70 13
-103 25 -164 5 -27 12 -66 15 -85 28 -173 106 -479 175 -695 246 -759 652
-1461 1183 -2049 154 -170 395 -402 547 -527 36 -30 67 -56 70 -59 10 -10 147
-117 220 -171 543 -403 1198 -722 1846 -898 106 -29 314 -79 364 -87 24 -4 39
-7 100 -19 44 -9 264 -44 310 -49 25 -3 72 -8 105 -11 33 -4 71 -8 85 -11 154
-25 897 -25 1050 0 14 3 61 7 105 11 44 4 82 8 85 10 3 1 32 6 65 9 74 8 215
32 315 52 41 9 86 18 100 20 83 16 340 84 487 130 469 147 864 328 1307 599
165 101 543 380 686 506 722 636 1228 1349 1570 2209 80 200 199 574 226 710
2 8 14 62 28 120 24 105 50 239 61 315 3 22 8 51 10 65 3 14 7 42 10 63 3 20
7 53 10 73 3 20 8 62 11 93 2 31 7 72 9 91 31 242 25 893 -10 1155 -2 17 -9
68 -15 115 -17 136 -18 139 -55 345 -3 17 -12 62 -21 100 -9 39 -18 79 -20 90
-8 40 -27 120 -32 135 -3 8 -6 20 -7 26 -34 157 -167 542 -277 799 -70 163
-282 579 -314 616 -8 8 -14 19 -14 22 0 4 -36 64 -81 134 -367 579 -842 1092
-1384 1497 -71 53 -135 100 -140 104 -6 5 -51 35 -100 68 -388 258 -794 465
-1215 617 -196 71 -549 174 -688 202 -9 2 -53 11 -97 20 -94 19 -279 51 -350
60 -27 3 -65 8 -82 11 -18 2 -48 6 -65 8 -18 3 -67 8 -108 11 -41 3 -95 8
-120 11 -50 5 -677 14 -682 9z"/>
</g>
</svg>
